name Walk6.mot
datacolumns 19
datarows 30
range 2.04000000 2.18500000
endheader

                time	   L_ground_force_vx	   L_ground_force_vy	   L_ground_force_vz	   L_ground_force_px	   L_ground_force_py	   L_ground_force_pz	   R_ground_force_vx	   R_ground_force_vy	   R_ground_force_vz	   R_ground_force_px	   R_ground_force_py	   R_ground_force_pz	   L_ground_torque_x	   L_ground_torque_y	   L_ground_torque_z	   R_ground_torque_x	   R_ground_torque_y	   R_ground_torque_z	
          2.04000000	        -32.50823643	        545.90138338	         15.57052546	          0.51182021	          0.00000000	          0.24254721	          0.00000000	         -0.00000000	          0.00000000	          0.00000000	          0.00000000	         -0.00000000	          0.00000000	         -1.14294696	          0.00000000	          0.00000000	          0.00000000	          0.00000000	
          2.04500000	        -31.03389851	        539.18145863	         16.01446704	          0.51396017	          0.00000000	          0.24243392	          0.00000000	          0.00000000	          0.00000000	         -0.00000000	          0.00000000	          0.00000000	          0.00000000	         -1.23089353	          0.00000000	          0.00000000	          0.00000000	          0.00000000	
          2.05000000	        -29.80448661	        533.32912624	         16.75391780	          0.51616506	          0.00000000	          0.24214921	         -0.00000000	          0.00000000	          0.00000000	         -0.00000000	          0.00000000	          0.00000000	          0.00000000	         -1.31924202	          0.00000000	          0.00000000	         -0.00000000	          0.00000000	
          2.05500000	        -28.77694314	        528.60682436	         17.98139449	          0.51848995	          0.00000000	          0.24169556	         -0.00000000	          0.00000000	         -0.00000000	         -0.00000000	          0.00000000	          0.00000000	          0.00000000	         -1.32499166	          0.00000000	          0.00000000	         -0.00000000	          0.00000000	
          2.06000000	        -27.69985411	        525.41825588	         19.77250807	          0.52087187	          0.00000000	          0.24127641	         -0.00000000	         -0.00000000	         -0.00000000	          0.00000000	          0.00000000	         -0.00000000	          0.00000000	         -1.29626796	          0.00000000	          0.00000000	         -0.00000000	          0.00000000	
          2.06500000	        -26.35791836	        523.97168219	         21.93263283	          0.52313754	          0.00000000	          0.24090183	          0.00000000	         -0.00000000	         -0.00000000	          0.00000000	          0.00000000	         -0.00000000	          0.00000000	         -1.26899132	          0.00000000	          0.00000000	          0.00000000	          0.00000000	
          2.07000000	        -24.55753921	        523.83288331	         24.47376695	          0.52525346	          0.00000000	          0.24053213	          0.00000000	         -0.00000000	          0.00000000	          0.00000000	          0.00000000	         -0.00000000	          0.00000000	         -1.16965858	          0.00000000	          0.00000000	          0.00000000	          0.00000000	
          2.07500000	        -22.41489374	        525.34129846	         27.17405617	          0.52722920	          0.00000000	          0.24018364	          0.00000000	          0.00000000	          0.00000000	         -0.00000000	          0.00000000	          0.00000000	          0.00000000	         -1.03067274	          0.00000000	          0.00000000	          0.00000000	          0.00000000	
          2.08000000	        -20.31646083	        528.73282303	         29.60039178	          0.52884976	          0.00000000	          0.23979351	         -0.00000000	          0.00000000	          0.00000000	         -0.00000000	          0.00000000	          0.00000000	          0.00000000	         -0.91214753	          0.00000000	          0.00000000	         -0.00000000	          0.00000000	
          2.08500000	        -18.38106578	        533.15025372	         31.43694954	          0.53037749	          0.00000000	          0.23947027	         -0.00000000	         -0.00000000	         -0.00000000	         -0.00000000	          0.00000000	          0.00000000	          0.00000000	         -0.86585534	          0.00000000	          0.00000000	         -0.00000000	          0.00000000	
          2.09000000	        -16.68579814	        538.10304692	         32.42345716	          0.53201730	          0.00000000	          0.23924413	         -0.00000000	         -0.00000000	         -0.00000000	          0.00000000	          0.00000000	         -0.00000000	          0.00000000	         -0.95027487	          0.00000000	          0.00000000	         -0.00000000	          0.00000000	
          2.09500000	        -15.08485465	        544.29639507	         32.27894093	          0.53352387	          0.00000000	          0.23911328	          0.00000000	         -0.00000000	          0.00000000	          0.00000000	          0.00000000	         -0.00000000	          0.00000000	         -1.16208452	          0.00000000	          0.00000000	          0.00000000	          0.00000000	
          2.10000000	        -13.22254023	        552.09256433	         31.11618975	          0.53474232	          0.00000000	          0.23900584	          0.00000000	          0.00000000	          0.00000000	         -0.00000000	          0.00000000	         -0.00000000	          0.00000000	         -1.40838742	          0.00000000	          0.00000000	          0.00000000	          0.00000000	
          2.10500000	        -10.90787892	        561.58513005	         29.40800710	          0.53586365	          0.00000000	          0.23903607	         -0.00000000	          0.00000000	          0.00000000	         -0.00000000	          0.00000000	          0.00000000	          0.00000000	         -1.61437743	          0.00000000	          0.00000000	         -0.00000000	          0.00000000	
          2.11000000	         -8.22311063	        572.71935785	         27.48439666	          0.53678385	          0.00000000	          0.23915333	         -0.00000000	          0.00000000	         -0.00000000	         -0.00000000	          0.00000000	          0.00000000	          0.00000000	         -1.84059636	          0.00000000	          0.00000000	         -0.00000000	          0.00000000	
          2.11500000	         -5.19587114	        584.81228211	         25.50143500	          0.53760028	          0.00000000	          0.23913385	         -0.00000000	         -0.00000000	         -0.00000000	          0.00000000	          0.00000000	         -0.00000000	          0.00000000	         -2.10397072	          0.00000000	          0.00000000	         -0.00000000	          0.00000000	
          2.12000000	         -2.01732099	        597.39567019	         23.81020009	          0.53845090	          0.00000000	          0.23904779	          0.00000000	         -0.00000000	         -0.00000000	          0.00000000	          0.00000000	         -0.00000000	          0.00000000	         -2.36975112	          0.00000000	          0.00000000	          0.00000000	          0.00000000	
          2.12500000	          1.10327312	        610.11763548	         22.52390458	          0.53932463	          0.00000000	          0.23888312	          0.00000000	         -0.00000000	          0.00000000	          0.00000000	          0.00000000	         -0.00000000	          0.00000000	         -2.64216883	          0.00000000	          0.00000000	          0.00000000	          0.00000000	
          2.13000000	          3.83301531	        622.18655830	         21.66810187	          0.54059040	          0.00000000	          0.23869451	          0.00000000	          0.00000000	          0.00000000	         -0.00000000	          0.00000000	          0.00000000	          0.00000000	         -2.84270667	          0.00000000	          0.00000000	          0.00000000	          0.00000000	
          2.13500000	          5.95346982	        633.44838420	         21.18226621	          0.54239637	          0.00000000	          0.23864754	         -0.00000000	          0.00000000	          0.00000000	         -0.00000000	          0.00000000	          0.00000000	          0.00000000	         -2.93853051	          0.00000000	          0.00000000	         -0.00000000	          0.00000000	
          2.14000000	          7.61211613	        644.23799653	         21.00909122	          0.54463646	          0.00000000	          0.23870201	         -0.00000000	          0.00000000	         -0.00000000	         -0.00000000	          0.00000000	          0.00000000	          0.00000000	         -2.97179547	          0.00000000	          0.00000000	         -0.00000000	          0.00000000	
          2.14500000	          9.11990956	        654.30019328	         21.32909142	          0.54708098	          0.00000000	          0.23873871	         -0.00000000	         -0.00000000	         -0.00000000	          0.00000000	          0.00000000	         -0.00000000	          0.00000000	         -2.90320504	          0.00000000	          0.00000000	         -0.00000000	          0.00000000	
          2.15000000	         10.65905934	        663.07791001	         22.12693922	          0.54932201	          0.00000000	          0.23872480	          0.00000000	         -0.00000000	         -0.00000000	          0.00000000	          0.00000000	         -0.00000000	          0.00000000	         -2.78750979	          0.00000000	          0.00000000	          0.00000000	          0.00000000	
          2.15500000	         12.19301181	        671.10082638	         23.14327695	          0.55150072	          0.00000000	          0.23870903	          0.00000000	          0.00000000	          0.00000000	          0.00000000	          0.00000000	         -0.00000000	          0.00000000	         -2.71828443	          0.00000000	          0.00000000	          0.00000000	          0.00000000	
          2.16000000	         13.67983164	        678.83816474	         24.07484250	          0.55405952	          0.00000000	          0.23879637	         -0.00000000	          0.00000000	          0.00000000	         -0.00000000	          0.00000000	          0.00000000	          0.00000000	         -2.64822073	          0.00000000	          0.00000000	         -0.00000000	          0.00000000	
          2.16500000	         15.05673387	        686.09646198	         24.64384571	          0.55674849	          0.00000000	          0.23891067	         -0.00000000	          0.00000000	         -0.00000000	         -0.00000000	          0.00000000	          0.00000000	          0.00000000	         -2.56245161	          0.00000000	          0.00000000	         -0.00000000	          0.00000000	
          2.17000000	         16.26267718	        692.92928573	         25.08415318	          0.55932876	          0.00000000	          0.23905364	         -0.00000000	         -0.00000000	         -0.00000000	          0.00000000	          0.00000000	         -0.00000000	          0.00000000	         -2.43649914	          0.00000000	          0.00000000	         -0.00000000	          0.00000000	
          2.17500000	         17.49836391	        699.75390892	         25.72559648	          0.56191075	          0.00000000	          0.23928335	          0.00000000	         -0.00000000	         -0.00000000	          0.00000000	          0.00000000	         -0.00000000	          0.00000000	         -2.31005675	          0.00000000	          0.00000000	          0.00000000	          0.00000000	
          2.18000000	         19.02875676	        706.73927263	         26.31457178	          0.56456286	          0.00000000	          0.23953649	          0.00000000	         -0.00000000	          0.00000000	          0.00000000	          0.00000000	         -0.00000000	          0.00000000	         -2.22403141	          0.00000000	          0.00000000	          0.00000000	          0.00000000	
          2.18500000	         20.87592095	        714.01177937	         26.72266871	          0.56704073	          0.00000000	          0.23972470	          0.00000000	          0.00000000	          0.00000000	         -0.00000000	          0.00000000	          0.00000000	          0.00000000	         -2.13083033	          0.00000000	          0.00000000	          0.00000000	          0.00000000	
